<mxfile host="app.diagrams.net" modified="2020-12-03T06:28:21.955Z" agent="5.0 (Windows)" etag="1fSPUW-s5-G9Y1G4dZPR" version="13.10.6" type="github">
  <diagram id="uBvH5y5qxbAvEKiW0clF" name="环境日常督查管理 系统架构图">
    <mxGraphModel dx="746" dy="547" grid="1" gridSize="10" guides="1" tooltips="1" connect="1" arrows="1" fold="1" page="1" pageScale="1" pageWidth="827" pageHeight="1169" math="0" shadow="0">
      <root>
        <mxCell id="0" />
        <mxCell id="1" parent="0" />
      </root>
    </mxGraphModel>
  </diagram>
</mxfile>
